<?xml version="1.0" encoding="utf-8"?>
<!-- Generator: Adobe Illustrator 21.1.0, SVG Export Plug-In . SVG Version: 6.00 Build 0)  -->
<svg version="1.1" id="Layer_1" xmlns="http://www.w3.org/2000/svg" xmlns:xlink="http://www.w3.org/1999/xlink" x="0px" y="0px"
	 viewBox="0 0 861.1 483" style="enable-background:new 0 0 861.1 483;" xml:space="preserve">
<style type="text/css">
	.st0{fill:none;}
</style>
<g>
	<g>
		<g>
			<polygon points="242.5,312.8 306.4,220.1 199.3,67.7 77.8,67.7 			"/>
			<polygon points="337.2,170.8 407.5,67.7 266.3,67.7 			"/>
			<g>
				<path d="M484.7,368.7c-0.3-1.1-0.9-1.8-1.6-2.3c-0.7-0.5-1.7-0.7-2.9-0.9c-1.2-0.1-2.8-0.2-4.7-0.2c-1.9,0-3.4,0.1-4.6,0.2
					c-1.2,0.1-2.2,0.4-2.9,0.9c-0.7,0.5-1.3,1.2-1.6,2.3c-0.3,1.1-0.5,2.5-0.6,4.3c-0.1,1.8-0.1,4.2-0.1,7.1s0,5.3,0.1,7.1
					c0.1,1.8,0.3,3.2,0.6,4.3c0.3,1.1,0.9,1.8,1.6,2.3c0.7,0.5,1.7,0.7,2.9,0.9c1.2,0.1,2.8,0.2,4.6,0.2c1.9,0,3.5-0.1,4.7-0.2
					c1.2-0.1,2.2-0.4,2.9-0.9c0.7-0.5,1.2-1.2,1.6-2.3c0.3-1.1,0.6-2.5,0.7-4.3c0.1-1.8,0.1-4.2,0.1-7.1s0-5.3-0.1-7.1
					C485.3,371.2,485,369.8,484.7,368.7z"/>
				<path d="M262.7,344.9l46.4,70.4h474.1v-70.4H262.7z M432.1,399.5c-0.8,0.2-1.8,0.3-3,0.4c-1.1,0.1-2.3,0.2-3.4,0.3
					c-1.2,0.1-2.3,0.1-3.4,0.1c-2.8,0-5.2-0.2-7.1-0.5c-1.9-0.4-3.5-1-4.7-1.9c-1.2-0.9-2.1-2.1-2.8-3.6c-0.6-1.5-1.1-3.4-1.3-5.8
					c-0.2-2.3-0.3-5.1-0.3-8.4c0-3.3,0.1-6.1,0.3-8.4c0.2-2.3,0.7-4.3,1.3-5.8c0.6-1.5,1.5-2.7,2.8-3.6c1.2-0.9,2.8-1.5,4.7-1.9
					c1.9-0.4,4.3-0.5,7.1-0.5c1.1,0,2.2,0,3.4,0.1c1.2,0.1,2.3,0.2,3.4,0.3c1.1,0.1,2,0.3,2.8,0.5v5.2c-1-0.1-1.9-0.2-2.8-0.3
					c-0.9-0.1-1.8-0.2-2.7-0.2c-0.9,0-1.6-0.1-2.3-0.1c-2.1,0-3.8,0.1-5.2,0.2c-1.4,0.2-2.5,0.5-3.3,1c-0.8,0.5-1.4,1.3-1.8,2.4
					c-0.4,1.1-0.7,2.5-0.8,4.3c-0.1,1.8-0.2,4.1-0.2,6.8c0,2.7,0.1,4.9,0.2,6.7c0.1,1.8,0.4,3.2,0.8,4.3c0.4,1.1,1,1.8,1.8,2.4
					c0.8,0.5,1.9,0.9,3.3,1c1.4,0.2,3.1,0.2,5.2,0.2c1.3,0,2.6-0.1,4.2-0.2c1.5-0.1,2.8-0.2,3.9-0.4V399.5z M491.7,388.5
					c-0.2,2.3-0.5,4.2-1.1,5.8c-0.6,1.5-1.4,2.7-2.6,3.6c-1.2,0.9-2.8,1.5-4.8,1.9c-2,0.4-4.6,0.5-7.8,0.5c-3.1,0-5.7-0.2-7.7-0.5
					c-2-0.4-3.6-1-4.8-1.9c-1.2-0.9-2-2.1-2.6-3.6c-0.5-1.5-0.9-3.4-1-5.8c-0.2-2.3-0.2-5.1-0.2-8.4c0-3.3,0.1-6.1,0.2-8.4
					c0.2-2.3,0.5-4.2,1-5.8c0.5-1.5,1.4-2.7,2.6-3.6c1.2-0.9,2.8-1.5,4.8-1.9c2-0.4,4.6-0.5,7.7-0.5c3.1,0,5.7,0.2,7.8,0.5
					c2,0.4,3.7,1,4.8,1.9c1.2,0.9,2.1,2.1,2.6,3.6c0.6,1.5,0.9,3.5,1.1,5.8c0.2,2.3,0.2,5.1,0.2,8.4
					C492,383.4,491.9,386.2,491.7,388.5z M562.4,399.8h-6.2v-29.4h-0.2L544,399.8h-4.6l-11.8-29.4h-0.2v29.4h-6.1v-39.4h8.8
					l11.6,28.7h0.3l11.6-28.7h8.8V399.8z M619.3,365.9h-19.8v11.3h17.1v5.5h-17.1v11.6h19.8v5.5H593v-39.4h26.3V365.9z M672.4,399.8
					L662,385.1h-0.5l-10.3,14.7h-7.3L658,380l-13.9-19.7h7.6l10.1,14.3h0.5l10.1-14.3h7.4l-13.9,19.5l14,20H672.4z"/>
			</g>
		</g>
	</g>
	<g>
		<rect x="392.1" y="173.2" width="49" height="132.2"/>
		<polygon points="611.3,173.2 471.3,173.2 471.3,218.9 517,218.9 517,305.4 565.3,305.4 565.3,218.9 611.3,218.9 		"/>
		<polygon points="684.3,260.6 715.1,305.4 719.5,305.4 773.1,305.4 684.6,173.8 657.9,212.6 657.7,212.4 596,305.4 653.7,305.4 		
			"/>
	</g>
</g>
</svg>
