<?xml version="1.0" encoding="utf-8"?>
<!-- Generator: Adobe Illustrator 16.0.0, SVG Export Plug-In . SVG Version: 6.00 Build 0)  -->
<!DOCTYPE svg PUBLIC "-//W3C//DTD SVG 1.1//EN" "http://www.w3.org/Graphics/SVG/1.1/DTD/svg11.dtd">
<svg version="1.1" id="Capa_1" xmlns="http://www.w3.org/2000/svg" xmlns:xlink="http://www.w3.org/1999/xlink" x="0px" y="0px"
	 width="414px" height="414px" viewBox="0 1083.445 414 414" enable-background="new 0 1083.445 414 414" xml:space="preserve">
<g>
	<g>
		<g>
			<g>
				<polygon fill="#426BAD" points="306.525,1271.044 381.792,1160.691 230.636,1160.691 				"/>
			</g>
		</g>
	</g>
	<g>
		<polygon fill="#58585B" points="154.365,1342.498 154.365,1342.498 154.365,1342.498 		"/>
	</g>
	<path fill="#40A879" d="M107.044,1237.01"/>
	<rect x="177.769" y="1230.33" fill="#40A879" width="34.808" height="34.805"/>
	<rect x="219.555" y="1230.33" fill="#40A879" width="34.804" height="34.805"/>
	<g>
		<polygon fill="#40A879" points="117.98,1245.533 171.759,1230.33 171.759,1265.135 117.98,1280.521 		"/>
	</g>
	<path fill="#40A879" d="M212.576,1291.087v-17.485h-34.808v34.804h0.184C188.421,1301.962,200.079,1296.175,212.576,1291.087z"/>
	<path fill="#40A879" d="M254.359,1277.399v-3.798h-34.804v14.747C230.652,1284.157,242.335,1280.501,254.359,1277.399z"/>
	<polygon fill="#40A879" points="118.216,1289.862 137.361,1319.374 171.759,1309.532 171.759,1274.727 	"/>
	<path fill="#40A879" d="M146.661,1333.715c4.281-4.728,9.113-9.246,14.463-13.53l-19.639,5.554L146.661,1333.715z"/>
	<g>
		<polygon fill="#40A879" points="112.589,1281.191 112.589,1247.211 93.962,1252.478 		"/>
	</g>
	<path fill="#58585B" d="M323.025,1280.555c-52.523,0.637-135.477,19.017-167.535,66.363l0.141,0.222l33.689,52.515
		c1.16,1.807,2.379,3.57,3.666,5.291l0.836,1.109c3.549,4.749,8.061,8.744,13.377,11.366
		C236.968,1432.097,271.335,1388.925,323.025,1280.555"/>
	<polygon fill="#58585B" points="203.011,1217.828 162.255,1160.691 32.208,1160.691 87.191,1241.673 174.599,1217.828 	"/>
</g>
</svg>
