<?xml version="1.0" encoding="utf-8"?>
<!-- Generator: Adobe Illustrator 16.0.0, SVG Export Plug-In . SVG Version: 6.00 Build 0)  -->
<!DOCTYPE svg PUBLIC "-//W3C//DTD SVG 1.1//EN" "http://www.w3.org/Graphics/SVG/1.1/DTD/svg11.dtd">
<svg version="1.1" id="Capa_1" xmlns="http://www.w3.org/2000/svg" xmlns:xlink="http://www.w3.org/1999/xlink" x="0px" y="0px"
	 width="595.279px" height="358.481px" viewBox="0 656.045 595.279 358.481" enable-background="new 0 656.045 595.279 358.481"
	 xml:space="preserve">
<g>
	<g>
		<g>
			<g>
				<polygon points="231.741,777.711 283.568,701.727 179.486,701.727 				"/>
			</g>
		</g>
		<g>
			<rect x="272.302" y="778.137" width="36.031" height="97.242"/>
			<polygon points="433.425,778.137 330.531,778.137 330.531,811.723 364.128,811.723 364.128,875.379 399.628,875.379 
				399.628,811.723 433.425,811.723 			"/>
			<g>
				<path d="M508.406,861.014"/>
			</g>
			<g>
				<path d="M505.929,871.645"/>
			</g>
			<polygon points="487.12,842.387 509.81,875.379 512.999,875.379 552.423,875.379 487.38,778.574 467.71,807.127 467.609,806.975 
				422.218,875.379 464.618,875.379 			"/>
		</g>
	</g>
	<g>
		<polygon points="126.968,826.912 126.968,826.912 126.968,826.912 		"/>
	</g>
	<path d="M94.388,754.277"/>
	<rect x="143.085" y="749.678" width="23.967" height="23.965"/>
	<rect x="171.857" y="749.678" width="23.965" height="23.965"/>
	<g>
		<polygon points="101.915,760.146 138.947,749.678 138.947,773.643 101.915,784.238 		"/>
	</g>
	<path d="M167.052,791.512v-12.039h-23.967v23.965h0.125C150.419,799.002,158.447,795.016,167.052,791.512z"/>
	<path d="M195.822,782.088v-2.615h-23.965v10.154C179.499,786.742,187.542,784.223,195.822,782.088z"/>
	<polygon points="102.079,790.67 115.261,810.99 138.947,804.213 138.947,780.248 	"/>
	<path d="M121.667,820.863c2.945-3.254,6.273-6.365,9.955-9.314l-13.521,3.824L121.667,820.863z"/>
	<g>
		<polygon points="98.204,784.699 98.204,761.301 85.378,764.928 		"/>
	</g>
	<path d="M243.103,784.262c-36.166,0.438-93.283,13.092-115.359,45.693l0.098,0.154l23.197,36.158
		c0.799,1.244,1.639,2.459,2.523,3.643l0.576,0.766c2.443,3.27,5.551,6.021,9.211,7.826
		C183.849,888.607,207.511,858.881,243.103,784.262"/>
	<polygon points="160.466,741.068 132.402,701.727 42.857,701.727 80.714,757.488 140.902,741.068 	"/>
</g>
<g>
	<g>
		<path d="M309.251,924.168c-0.188-0.566-0.469-0.975-0.852-1.221c-0.383-0.248-0.908-0.402-1.578-0.465s-1.52-0.094-2.551-0.094
			c-1.012,0-1.846,0.031-2.508,0.094c-0.658,0.063-1.186,0.217-1.578,0.465c-0.391,0.246-0.674,0.654-0.85,1.221
			c-0.176,0.568-0.289,1.342-0.34,2.322c-0.053,0.979-0.078,2.252-0.078,3.82c0,1.566,0.025,2.84,0.078,3.82
			c0.051,0.979,0.164,1.754,0.34,2.32s0.459,0.975,0.85,1.221c0.393,0.248,0.92,0.404,1.578,0.465
			c0.662,0.063,1.496,0.094,2.508,0.094c1.031,0,1.881-0.031,2.551-0.094c0.67-0.061,1.195-0.217,1.578-0.465
			c0.383-0.246,0.664-0.654,0.852-1.221c0.186-0.566,0.303-1.342,0.355-2.32c0.051-0.98,0.078-2.254,0.078-3.82
			c0-1.568-0.027-2.842-0.078-3.82C309.554,925.51,309.437,924.736,309.251,924.168z"/>
		<path d="M182.927,904.404l34.141,51.76h335.355v-51.76H182.927z M283.109,940.953h-12.932v-21.287h3.496v18.223h9.436V940.953z
			 M313.056,934.842c-0.082,1.248-0.273,2.285-0.572,3.109c-0.299,0.826-0.77,1.475-1.406,1.949
			c-0.641,0.475-1.512,0.811-2.615,1.006s-2.502,0.293-4.191,0.293c-1.693,0-3.084-0.098-4.178-0.293s-1.959-0.531-2.598-1.006
			c-0.641-0.475-1.105-1.123-1.393-1.949c-0.289-0.824-0.477-1.861-0.559-3.109c-0.082-1.246-0.123-2.758-0.123-4.531
			s0.041-3.285,0.123-4.533s0.27-2.283,0.559-3.109c0.287-0.824,0.752-1.475,1.393-1.949c0.639-0.475,1.504-0.809,2.598-1.006
			c1.094-0.195,2.484-0.293,4.178-0.293c1.689,0,3.088,0.098,4.191,0.293c1.104,0.197,1.975,0.531,2.615,1.006
			c0.637,0.475,1.107,1.125,1.406,1.949c0.299,0.826,0.49,1.861,0.572,3.109s0.123,2.76,0.123,4.533
			S313.138,933.596,313.056,934.842z M342.88,940.551c-0.701,0.123-1.469,0.232-2.305,0.324s-1.656,0.17-2.459,0.232
			c-0.805,0.061-1.537,0.092-2.197,0.092c-1.527,0-2.82-0.098-3.883-0.293s-1.943-0.531-2.645-1.006s-1.244-1.123-1.623-1.949
			c-0.383-0.824-0.65-1.861-0.807-3.109c-0.154-1.246-0.23-2.758-0.23-4.531s0.076-3.285,0.23-4.533
			c0.156-1.248,0.428-2.283,0.82-3.109c0.391-0.824,0.938-1.475,1.641-1.949c0.699-0.475,1.582-0.809,2.645-1.006
			c1.063-0.195,2.346-0.293,3.852-0.293c0.682,0,1.428,0.031,2.242,0.092c0.816,0.063,1.625,0.141,2.43,0.232
			c0.803,0.094,1.537,0.201,2.195,0.324v2.785c-0.699-0.102-1.393-0.186-2.072-0.248c-0.682-0.061-1.305-0.113-1.871-0.154
			c-0.568-0.041-1.037-0.063-1.408-0.063c-1.236,0-2.277,0.027-3.125,0.078c-0.846,0.053-1.537,0.201-2.072,0.449
			c-0.537,0.246-0.949,0.654-1.236,1.223c-0.291,0.566-0.49,1.344-0.605,2.334c-0.111,0.99-0.17,2.27-0.17,3.838
			c0,1.381,0.037,2.541,0.109,3.48c0.072,0.938,0.225,1.711,0.463,2.32c0.238,0.607,0.568,1.066,0.99,1.377
			c0.424,0.309,0.979,0.525,1.67,0.648s1.543,0.186,2.555,0.186c0.391,0,0.809-0.01,1.252-0.031c0.443-0.02,0.861-0.045,1.252-0.076
			c0.393-0.031,0.723-0.066,0.99-0.109v-6.031h-4.176v-2.908h7.549V940.551z M361.009,940.953h-3.494v-21.287h3.494V940.953z
			 M390.2,937.703c-0.238,0.785-0.568,1.408-0.992,1.873c-0.422,0.463-0.943,0.814-1.563,1.051
			c-0.617,0.238-1.299,0.393-2.041,0.465s-1.547,0.107-2.412,0.107c-0.764,0-1.605-0.02-2.521-0.061
			c-0.92-0.043-1.816-0.1-2.691-0.172c-0.877-0.07-1.676-0.148-2.398-0.23v-2.879c0.742,0.063,1.521,0.125,2.336,0.188
			c0.814,0.061,1.594,0.107,2.336,0.139s1.381,0.047,1.918,0.047c1.092,0,1.947-0.053,2.568-0.154
			c0.617-0.104,1.113-0.27,1.484-0.496c0.246-0.164,0.428-0.371,0.541-0.619s0.186-0.541,0.217-0.881
			c0.031-0.342,0.047-0.717,0.047-1.131c0-0.555-0.021-1.02-0.063-1.391s-0.135-0.66-0.279-0.867
			c-0.143-0.205-0.369-0.355-0.68-0.449c-0.311-0.092-0.713-0.168-1.207-0.23l-5.072-0.588c-0.99-0.125-1.801-0.336-2.43-0.635
			c-0.631-0.299-1.115-0.695-1.453-1.191c-0.342-0.494-0.572-1.082-0.697-1.764c-0.123-0.68-0.186-1.432-0.186-2.258
			c0-1.381,0.186-2.475,0.557-3.279s0.902-1.418,1.594-1.842c0.689-0.422,1.51-0.699,2.459-0.834s2.002-0.201,3.156-0.201
			c0.803,0,1.629,0.025,2.475,0.078c0.846,0.051,1.645,0.113,2.398,0.184c0.752,0.074,1.377,0.172,1.871,0.295v2.816
			c-0.516-0.082-1.119-0.156-1.809-0.219c-0.691-0.061-1.408-0.107-2.152-0.139c-0.742-0.029-1.434-0.047-2.072-0.047
			c-1.072,0-1.934,0.047-2.582,0.141c-0.65,0.092-1.15,0.242-1.502,0.447c-0.412,0.229-0.66,0.543-0.742,0.943
			c-0.082,0.404-0.123,0.904-0.123,1.502c0,0.701,0.045,1.242,0.139,1.623c0.094,0.383,0.309,0.646,0.65,0.789
			c0.34,0.146,0.861,0.26,1.563,0.342l5.074,0.588c0.637,0.061,1.215,0.16,1.73,0.293c0.518,0.135,0.977,0.355,1.379,0.666
			c0.402,0.309,0.717,0.752,0.943,1.33c0.143,0.289,0.252,0.619,0.322,0.99c0.074,0.371,0.135,0.777,0.188,1.221
			c0.051,0.445,0.078,0.943,0.078,1.5C390.556,935.939,390.437,936.92,390.2,937.703z M418.863,922.73h-6.434v18.223h-3.496V922.73
			h-6.467v-3.064h16.396V922.73z M435.259,940.953h-3.496v-21.287h3.496V940.953z M463.476,940.766
			c-0.455,0.084-0.986,0.156-1.596,0.219c-0.607,0.061-1.227,0.111-1.855,0.154c-0.629,0.041-1.232,0.061-1.809,0.061
			c-1.527,0-2.805-0.098-3.836-0.293c-1.033-0.195-1.873-0.531-2.521-1.006c-0.65-0.475-1.146-1.119-1.486-1.934
			s-0.572-1.852-0.695-3.109s-0.186-2.773-0.186-4.547s0.063-3.291,0.186-4.549s0.355-2.295,0.695-3.109s0.836-1.459,1.486-1.934
			c0.648-0.475,1.488-0.809,2.521-1.006c1.031-0.195,2.309-0.293,3.836-0.293c0.598,0,1.209,0.02,1.84,0.061
			c0.629,0.043,1.232,0.1,1.811,0.172s1.072,0.16,1.484,0.262v2.785c-0.516-0.063-1.027-0.119-1.531-0.17
			c-0.506-0.051-0.994-0.088-1.471-0.109c-0.473-0.02-0.885-0.031-1.236-0.031c-1.135,0-2.072,0.043-2.816,0.125
			c-0.74,0.082-1.334,0.268-1.777,0.557c-0.445,0.289-0.773,0.717-0.992,1.283c-0.215,0.568-0.359,1.336-0.432,2.305
			c-0.072,0.971-0.109,2.188-0.109,3.652c0,1.443,0.037,2.656,0.109,3.635c0.072,0.98,0.217,1.752,0.432,2.32
			c0.219,0.566,0.547,0.994,0.992,1.283c0.443,0.289,1.037,0.475,1.777,0.557c0.744,0.084,1.682,0.125,2.816,0.125
			c0.682,0,1.428-0.031,2.242-0.094c0.816-0.061,1.521-0.133,2.121-0.217V940.766z M491.458,937.703
			c-0.238,0.785-0.566,1.408-0.99,1.873c-0.422,0.463-0.943,0.814-1.563,1.051c-0.617,0.238-1.299,0.393-2.043,0.465
			c-0.74,0.072-1.547,0.107-2.412,0.107c-0.762,0-1.604-0.02-2.521-0.061c-0.918-0.043-1.814-0.1-2.691-0.172
			c-0.877-0.07-1.676-0.148-2.398-0.23v-2.879c0.744,0.063,1.521,0.125,2.338,0.188c0.814,0.061,1.592,0.107,2.334,0.139
			s1.383,0.047,1.918,0.047c1.094,0,1.949-0.053,2.568-0.154c0.619-0.104,1.115-0.27,1.484-0.496
			c0.248-0.164,0.43-0.371,0.541-0.619c0.115-0.248,0.186-0.541,0.219-0.881c0.029-0.342,0.047-0.717,0.047-1.131
			c0-0.555-0.021-1.02-0.063-1.391s-0.135-0.66-0.279-0.867c-0.145-0.205-0.371-0.355-0.682-0.449
			c-0.309-0.092-0.711-0.168-1.205-0.23l-5.074-0.588c-0.99-0.125-1.801-0.336-2.43-0.635s-1.113-0.695-1.453-1.191
			c-0.34-0.494-0.572-1.082-0.695-1.764c-0.125-0.68-0.188-1.432-0.188-2.258c0-1.381,0.188-2.475,0.559-3.279
			s0.902-1.418,1.594-1.842c0.689-0.422,1.51-0.699,2.459-0.834s2-0.201,3.154-0.201c0.805,0,1.631,0.025,2.477,0.078
			c0.844,0.051,1.643,0.113,2.396,0.184c0.754,0.074,1.377,0.172,1.871,0.295v2.816c-0.514-0.082-1.117-0.156-1.809-0.219
			c-0.691-0.061-1.408-0.107-2.15-0.139c-0.742-0.029-1.434-0.047-2.072-0.047c-1.072,0-1.934,0.047-2.584,0.141
			c-0.648,0.092-1.15,0.242-1.5,0.447c-0.412,0.229-0.66,0.543-0.742,0.943c-0.084,0.404-0.125,0.904-0.125,1.502
			c0,0.701,0.047,1.242,0.141,1.623c0.092,0.383,0.309,0.646,0.648,0.789c0.342,0.146,0.861,0.26,1.563,0.342l5.074,0.588
			c0.639,0.061,1.217,0.16,1.732,0.293c0.516,0.135,0.975,0.355,1.377,0.666c0.4,0.309,0.717,0.752,0.943,1.33
			c0.145,0.289,0.254,0.619,0.324,0.99c0.074,0.371,0.135,0.777,0.186,1.221c0.053,0.445,0.078,0.943,0.078,1.5
			C491.814,935.939,491.695,936.92,491.458,937.703z"/>
	</g>
</g>
</svg>
