<?xml version="1.0" encoding="utf-8"?>
<!-- Generator: Adobe Illustrator 16.0.0, SVG Export Plug-In . SVG Version: 6.00 Build 0)  -->
<!DOCTYPE svg PUBLIC "-//W3C//DTD SVG 1.1//EN" "http://www.w3.org/Graphics/SVG/1.1/DTD/svg11.dtd">
<svg version="1.1" id="Capa_1" xmlns="http://www.w3.org/2000/svg" xmlns:xlink="http://www.w3.org/1999/xlink" x="0px" y="0px"
	 width="595.279px" height="358.481px" viewBox="0 248.045 595.279 358.481" enable-background="new 0 248.045 595.279 358.481"
	 xml:space="preserve">
<g>
	<g>
		<g>
			<g>
				<polygon fill="#426BAD" points="231.741,369.711 283.568,293.727 179.486,293.727 				"/>
			</g>
		</g>
		<g>
			<rect x="272.302" y="370.137" fill="#58585B" width="36.031" height="97.242"/>
			<polygon fill="#58585B" points="433.425,370.137 330.531,370.137 330.531,403.722 364.128,403.722 364.128,467.379 
				399.628,467.379 399.628,403.722 433.425,403.722 			"/>
			<g>
				<path fill="#58585B" d="M508.406,453.014"/>
			</g>
			<g>
				<path fill="#58585B" d="M505.929,463.644"/>
			</g>
			<polygon fill="#58585B" points="487.12,434.387 509.81,467.379 512.999,467.379 552.423,467.379 487.38,370.574 467.71,399.127 
				467.609,398.974 422.218,467.379 464.618,467.379 			"/>
		</g>
	</g>
	<g>
		<polygon fill="#58585B" points="126.968,418.912 126.968,418.912 126.968,418.912 		"/>
	</g>
	<path fill="#40A879" d="M94.388,346.276"/>
	<rect x="143.085" y="341.677" fill="#40A879" width="23.967" height="23.966"/>
	<rect x="171.857" y="341.677" fill="#40A879" width="23.965" height="23.966"/>
	<g>
		<polygon fill="#40A879" points="101.915,352.146 138.947,341.677 138.947,365.643 101.915,376.237 		"/>
	</g>
	<path fill="#40A879" d="M167.052,383.512v-12.04h-23.967v23.966h0.125C150.419,391.001,158.447,387.016,167.052,383.512z"/>
	<path fill="#40A879" d="M195.822,374.087v-2.615h-23.965v10.155C179.499,378.741,187.542,376.223,195.822,374.087z"/>
	<polygon fill="#40A879" points="102.079,382.67 115.261,402.99 138.947,396.213 138.947,372.247 	"/>
	<path fill="#40A879" d="M121.667,412.863c2.945-3.254,6.273-6.365,9.955-9.315l-13.521,3.824L121.667,412.863z"/>
	<g>
		<polygon fill="#40A879" points="98.204,376.699 98.204,353.301 85.378,356.927 		"/>
	</g>
	<path fill="#58585B" d="M243.103,376.261c-36.166,0.438-93.283,13.093-115.359,45.694l0.098,0.153l23.197,36.159
		c0.799,1.243,1.639,2.458,2.523,3.643l0.576,0.766c2.443,3.269,5.551,6.021,9.211,7.825
		C183.849,480.606,207.511,450.88,243.103,376.261"/>
	<polygon fill="#58585B" points="160.466,333.068 132.402,293.727 42.857,293.727 80.714,349.487 140.902,333.068 	"/>
</g>
<g>
	<g>
		<path fill="#426BAD" d="M309.251,516.168c-0.188-0.566-0.469-0.975-0.852-1.222s-0.908-0.402-1.578-0.465
			c-0.67-0.062-1.52-0.093-2.551-0.093c-1.012,0-1.846,0.031-2.508,0.093c-0.658,0.063-1.186,0.218-1.578,0.465
			c-0.391,0.247-0.674,0.655-0.85,1.222c-0.176,0.568-0.289,1.341-0.34,2.321c-0.053,0.979-0.078,2.253-0.078,3.82
			s0.025,2.841,0.078,3.821c0.051,0.979,0.164,1.753,0.34,2.32c0.176,0.566,0.459,0.974,0.85,1.221
			c0.393,0.248,0.92,0.403,1.578,0.465c0.662,0.062,1.496,0.093,2.508,0.093c1.031,0,1.881-0.031,2.551-0.093
			s1.195-0.217,1.578-0.465c0.383-0.247,0.664-0.654,0.852-1.221c0.186-0.567,0.303-1.342,0.355-2.32
			c0.051-0.98,0.078-2.254,0.078-3.821s-0.027-2.842-0.078-3.82C309.554,517.509,309.437,516.736,309.251,516.168z"/>
		<path fill="#426BAD" d="M182.927,496.404l34.141,51.76h335.355v-51.76H182.927z M283.109,532.952h-12.932v-21.286h3.496v18.223
			h9.436V532.952z M313.056,526.842c-0.082,1.248-0.273,2.284-0.572,3.109s-0.77,1.475-1.406,1.949
			c-0.641,0.475-1.512,0.81-2.615,1.005c-1.104,0.196-2.502,0.294-4.191,0.294c-1.693,0-3.084-0.098-4.178-0.294
			c-1.094-0.195-1.959-0.53-2.598-1.005c-0.641-0.475-1.105-1.124-1.393-1.949c-0.289-0.825-0.477-1.861-0.559-3.109
			c-0.082-1.247-0.123-2.758-0.123-4.532c0-1.773,0.041-3.284,0.123-4.533c0.082-1.247,0.27-2.283,0.559-3.108
			c0.287-0.825,0.752-1.475,1.393-1.949c0.639-0.475,1.504-0.81,2.598-1.006c1.094-0.195,2.484-0.294,4.178-0.294
			c1.689,0,3.088,0.099,4.191,0.294c1.104,0.196,1.975,0.531,2.615,1.006c0.637,0.475,1.107,1.124,1.406,1.949
			s0.49,1.861,0.572,3.108c0.082,1.249,0.123,2.76,0.123,4.533C313.179,524.084,313.138,525.595,313.056,526.842z M342.88,532.55
			c-0.701,0.123-1.469,0.232-2.305,0.324c-0.836,0.093-1.656,0.171-2.459,0.232c-0.805,0.062-1.537,0.093-2.197,0.093
			c-1.527,0-2.82-0.098-3.883-0.294c-1.063-0.195-1.943-0.53-2.645-1.005s-1.244-1.124-1.623-1.949
			c-0.383-0.825-0.65-1.861-0.807-3.109c-0.154-1.247-0.23-2.758-0.23-4.532c0-1.773,0.076-3.284,0.23-4.533
			c0.156-1.247,0.428-2.283,0.82-3.108c0.391-0.825,0.938-1.475,1.641-1.949c0.699-0.475,1.582-0.81,2.645-1.006
			c1.063-0.195,2.346-0.294,3.852-0.294c0.682,0,1.428,0.031,2.242,0.093c0.816,0.062,1.625,0.14,2.43,0.232
			c0.803,0.093,1.537,0.201,2.195,0.324v2.785c-0.699-0.103-1.393-0.186-2.072-0.248c-0.682-0.062-1.305-0.113-1.871-0.154
			c-0.568-0.041-1.037-0.063-1.408-0.063c-1.236,0-2.277,0.027-3.125,0.078c-0.846,0.052-1.537,0.201-2.072,0.448
			c-0.537,0.247-0.949,0.655-1.236,1.223c-0.291,0.567-0.49,1.345-0.605,2.335c-0.111,0.99-0.17,2.27-0.17,3.837
			c0,1.382,0.037,2.542,0.109,3.48s0.225,1.712,0.463,2.32s0.568,1.066,0.99,1.377c0.424,0.309,0.979,0.525,1.67,0.649
			c0.691,0.123,1.543,0.186,2.555,0.186c0.391,0,0.809-0.011,1.252-0.031s0.861-0.046,1.252-0.077
			c0.393-0.03,0.723-0.066,0.99-0.108v-6.032h-4.176v-2.908h7.549V532.55z M361.009,532.952h-3.494v-21.286h3.494V532.952z
			 M390.2,529.703c-0.238,0.785-0.568,1.408-0.992,1.872c-0.422,0.464-0.943,0.814-1.563,1.052
			c-0.617,0.237-1.299,0.392-2.041,0.465c-0.742,0.071-1.547,0.107-2.412,0.107c-0.764,0-1.605-0.021-2.521-0.062
			c-0.92-0.042-1.816-0.099-2.691-0.171c-0.877-0.071-1.676-0.148-2.398-0.231v-2.878c0.742,0.063,1.521,0.125,2.336,0.187
			s1.594,0.108,2.336,0.14c0.742,0.03,1.381,0.046,1.918,0.046c1.092,0,1.947-0.052,2.568-0.154
			c0.617-0.104,1.113-0.269,1.484-0.495c0.246-0.165,0.428-0.372,0.541-0.619c0.113-0.248,0.186-0.541,0.217-0.882
			s0.047-0.717,0.047-1.13c0-0.556-0.021-1.02-0.063-1.392c-0.041-0.371-0.135-0.66-0.279-0.866
			c-0.143-0.206-0.369-0.355-0.68-0.449c-0.311-0.093-0.713-0.169-1.207-0.23l-5.072-0.588c-0.99-0.125-1.801-0.336-2.43-0.635
			c-0.631-0.299-1.115-0.696-1.453-1.191c-0.342-0.494-0.572-1.082-0.697-1.764c-0.123-0.681-0.186-1.433-0.186-2.258
			c0-1.382,0.186-2.476,0.557-3.279c0.371-0.805,0.902-1.418,1.594-1.842c0.689-0.422,1.51-0.7,2.459-0.835
			c0.949-0.134,2.002-0.201,3.156-0.201c0.803,0,1.629,0.026,2.475,0.078s1.645,0.113,2.398,0.185
			c0.752,0.073,1.377,0.171,1.871,0.294v2.816c-0.516-0.082-1.119-0.155-1.809-0.218c-0.691-0.062-1.408-0.107-2.152-0.139
			c-0.742-0.03-1.434-0.047-2.072-0.047c-1.072,0-1.934,0.047-2.582,0.14c-0.65,0.093-1.15,0.243-1.502,0.448
			c-0.412,0.229-0.66,0.542-0.742,0.943c-0.082,0.403-0.123,0.903-0.123,1.501c0,0.702,0.045,1.243,0.139,1.624
			c0.094,0.382,0.309,0.646,0.65,0.789c0.34,0.146,0.861,0.259,1.563,0.341l5.074,0.588c0.637,0.062,1.215,0.16,1.73,0.294
			c0.518,0.134,0.977,0.355,1.379,0.665c0.402,0.309,0.717,0.753,0.943,1.33c0.143,0.289,0.252,0.619,0.322,0.99
			c0.074,0.371,0.135,0.778,0.188,1.222c0.051,0.444,0.078,0.943,0.078,1.5C390.556,527.939,390.437,528.92,390.2,529.703z
			 M418.863,514.729h-6.434v18.223h-3.496v-18.223h-6.467v-3.063h16.396V514.729z M435.259,532.952h-3.496v-21.286h3.496V532.952z
			 M463.476,532.766c-0.455,0.084-0.986,0.155-1.596,0.218c-0.607,0.062-1.227,0.112-1.855,0.154
			c-0.629,0.041-1.232,0.062-1.809,0.062c-1.527,0-2.805-0.098-3.836-0.294c-1.033-0.195-1.873-0.53-2.521-1.005
			c-0.65-0.475-1.146-1.119-1.486-1.935c-0.34-0.813-0.572-1.851-0.695-3.109c-0.123-1.257-0.186-2.772-0.186-4.547
			c0-1.773,0.063-3.29,0.186-4.548s0.355-2.295,0.695-3.109s0.836-1.459,1.486-1.934c0.648-0.475,1.488-0.81,2.521-1.006
			c1.031-0.195,2.309-0.294,3.836-0.294c0.598,0,1.209,0.021,1.84,0.062c0.629,0.042,1.232,0.099,1.811,0.171
			s1.072,0.16,1.484,0.263v2.785c-0.516-0.063-1.027-0.119-1.531-0.171c-0.506-0.051-0.994-0.088-1.471-0.108
			c-0.473-0.021-0.885-0.031-1.236-0.031c-1.135,0-2.072,0.042-2.816,0.124c-0.74,0.083-1.334,0.269-1.777,0.557
			c-0.445,0.29-0.773,0.718-0.992,1.284c-0.215,0.567-0.359,1.336-0.432,2.305c-0.072,0.97-0.109,2.187-0.109,3.651
			c0,1.443,0.037,2.656,0.109,3.635c0.072,0.98,0.217,1.753,0.432,2.32c0.219,0.567,0.547,0.995,0.992,1.284
			c0.443,0.289,1.037,0.475,1.777,0.557c0.744,0.083,1.682,0.124,2.816,0.124c0.682,0,1.428-0.031,2.242-0.093
			c0.816-0.062,1.521-0.134,2.121-0.217V532.766z M491.458,529.703c-0.238,0.785-0.566,1.408-0.99,1.872
			c-0.422,0.464-0.943,0.814-1.563,1.052c-0.617,0.237-1.299,0.392-2.043,0.465c-0.74,0.071-1.547,0.107-2.412,0.107
			c-0.762,0-1.604-0.021-2.521-0.062c-0.918-0.042-1.814-0.099-2.691-0.171c-0.877-0.071-1.676-0.148-2.398-0.231v-2.878
			c0.744,0.063,1.521,0.125,2.338,0.187c0.814,0.062,1.592,0.108,2.334,0.14c0.742,0.03,1.383,0.046,1.918,0.046
			c1.094,0,1.949-0.052,2.568-0.154c0.619-0.104,1.115-0.269,1.484-0.495c0.248-0.165,0.43-0.372,0.541-0.619
			c0.115-0.248,0.186-0.541,0.219-0.882c0.029-0.341,0.047-0.717,0.047-1.13c0-0.556-0.021-1.02-0.063-1.392
			c-0.041-0.371-0.135-0.66-0.279-0.866s-0.371-0.355-0.682-0.449c-0.309-0.093-0.711-0.169-1.205-0.23l-5.074-0.588
			c-0.99-0.125-1.801-0.336-2.43-0.635s-1.113-0.696-1.453-1.191c-0.34-0.494-0.572-1.082-0.695-1.764
			c-0.125-0.681-0.188-1.433-0.188-2.258c0-1.382,0.188-2.476,0.559-3.279c0.371-0.805,0.902-1.418,1.594-1.842
			c0.689-0.422,1.51-0.7,2.459-0.835c0.949-0.134,2-0.201,3.154-0.201c0.805,0,1.631,0.026,2.477,0.078
			c0.844,0.052,1.643,0.113,2.396,0.185c0.754,0.073,1.377,0.171,1.871,0.294v2.816c-0.514-0.082-1.117-0.155-1.809-0.218
			c-0.691-0.062-1.408-0.107-2.15-0.139c-0.742-0.03-1.434-0.047-2.072-0.047c-1.072,0-1.934,0.047-2.584,0.14
			c-0.648,0.093-1.15,0.243-1.5,0.448c-0.412,0.229-0.66,0.542-0.742,0.943c-0.084,0.403-0.125,0.903-0.125,1.501
			c0,0.702,0.047,1.243,0.141,1.624c0.092,0.382,0.309,0.646,0.648,0.789c0.342,0.146,0.861,0.259,1.563,0.341l5.074,0.588
			c0.639,0.062,1.217,0.16,1.732,0.294s0.975,0.355,1.377,0.665c0.4,0.309,0.717,0.753,0.943,1.33
			c0.145,0.289,0.254,0.619,0.324,0.99c0.074,0.371,0.135,0.778,0.186,1.222c0.053,0.444,0.078,0.943,0.078,1.5
			C491.814,527.939,491.695,528.92,491.458,529.703z"/>
	</g>
</g>
</svg>
