<?xml version="1.0" encoding="utf-8"?>
<!-- Generator: Adobe Illustrator 16.0.0, SVG Export Plug-In . SVG Version: 6.00 Build 0)  -->
<!DOCTYPE svg PUBLIC "-//W3C//DTD SVG 1.1//EN" "http://www.w3.org/Graphics/SVG/1.1/DTD/svg11.dtd">
<svg version="1.1" id="Capa_1" xmlns="http://www.w3.org/2000/svg" xmlns:xlink="http://www.w3.org/1999/xlink" x="0px" y="0px"
	 width="414px" height="414px" viewBox="886 1083.445 414 414" enable-background="new 886 1083.445 414 414" xml:space="preserve">
<g>
	<g>
		<g>
			<g>
				<polygon points="1192.525,1271.044 1267.792,1160.691 1116.636,1160.691 				"/>
			</g>
		</g>
	</g>
	<g>
		<polygon points="1040.365,1342.498 1040.365,1342.498 1040.365,1342.498 		"/>
	</g>
	<path d="M993.044,1237.01"/>
	<rect x="1063.769" y="1230.33" width="34.807" height="34.805"/>
	<rect x="1105.554" y="1230.33" width="34.805" height="34.805"/>
	<g>
		<polygon points="1003.98,1245.533 1057.759,1230.33 1057.759,1265.135 1003.98,1280.521 		"/>
	</g>
	<path d="M1098.575,1291.087v-17.485h-34.807v34.804h0.184C1074.421,1301.962,1086.079,1296.175,1098.575,1291.087z"/>
	<path d="M1140.359,1277.399v-3.798h-34.805v14.747C1116.652,1284.157,1128.335,1280.501,1140.359,1277.399z"/>
	<polygon points="1004.216,1289.862 1023.361,1319.374 1057.759,1309.532 1057.759,1274.727 	"/>
	<path d="M1032.661,1333.715c4.281-4.728,9.113-9.246,14.463-13.53l-19.639,5.554L1032.661,1333.715z"/>
	<g>
		<polygon points="998.589,1281.191 998.589,1247.211 979.962,1252.478 		"/>
	</g>
	<path d="M1209.025,1280.555c-52.523,0.637-135.477,19.017-167.535,66.363l0.141,0.222l33.689,52.515
		c1.16,1.807,2.379,3.57,3.666,5.291l0.836,1.109c3.549,4.749,8.061,8.744,13.377,11.366
		C1122.968,1432.097,1157.335,1388.925,1209.025,1280.555"/>
	<polygon points="1089.011,1217.828 1048.255,1160.691 918.208,1160.691 973.191,1241.673 1060.599,1217.828 	"/>
</g>
</svg>
