<?xml version="1.0" encoding="utf-8"?>
<!-- Generator: Adobe Illustrator 21.1.0, SVG Export Plug-In . SVG Version: 6.00 Build 0)  -->
<svg version="1.1" id="Capa_1" xmlns="http://www.w3.org/2000/svg" xmlns:xlink="http://www.w3.org/1999/xlink" x="0px" y="0px"
	 viewBox="0 0 650.2 650.2" style="enable-background:new 0 0 650.2 650.2;" xml:space="preserve">
<style type="text/css">
	.st0{fill:#A3B267;}
	.st1{fill:none;}
	.st2{fill:#FFFFFF;}
	.st3{fill:#FFFFFF;stroke:#000000;stroke-width:4;stroke-miterlimit:10;}
	.st4{fill:#575756;}
	.st5{fill:#575756;stroke:#000000;stroke-width:4;stroke-miterlimit:10;}
</style>
<path d="M614.7,115.1c-0.7,0.2-1,0.2-1.2,0.4c-23.2,13.2-48.1,22.3-73.8,29.2c-17.1,4.6-34.1,9-50.5,15.8
	c-19.4,8-37.6,17.8-53.1,32.1c-11.1,10.2-19.7,21.5-25.2,34.4c-1.3-5.2-3.4-10.1-5.8-14.9c-6.3-12.2-15-22.3-25.6-30.9
	c-4.4-3.6-9-6.7-13.9-9.6c-0.3-0.2-0.6-0.4-1-0.6c17.7,6.6,32.2,17.3,42.2,33.7c2.3-5.4,3.7-10.8,3.8-16.6
	c0.1-11.8-5-21.3-13.4-29.3c-6.6-6.2-14.4-10.6-22.8-14.1c-7-3-14.4-5-21.7-7.1c-11.1-3.1-21.8-7.2-31.7-13
	c-0.1-0.1-0.2-0.1-0.5-0.2c0,0.4,0,0.8,0,1.2c0.5,21.7,5.9,42.2,16.5,61.2c4.6,8.3,10.4,15.8,18.3,21.3c8.5,5.9,18,8.4,28.4,7.8
	c6.3-0.3,12.4-1.8,18.3-4.1c0.2,0.2,0.3,0.4,0.4,0.6c3.2,6,5.6,12.3,6.9,18.9c-3.2,8.8-4.9,18.4-4.9,28.7c0,13.3,3,26,8.3,38.5
	c23.6-37.8,57.4-62.1,98.6-76.9c-0.8,0.5-1.5,1-2.3,1.4c-11.3,6.6-22.2,13.7-32.4,21.9c-24.7,19.7-45.3,42.9-60.1,70.9
	c-5.8,11-10.6,22.4-13.9,34.3l-1.3,1.9l-160.8-231l-205-0.9L311.5,535l67.2-96.7l0.2,0.2l78.9-114c2.8,0.4,5.5,0.7,8.3,0.8
	c23.9,1.5,46-4,65.9-17.4c18.5-12.5,32-29.6,42.9-48.7c25.1-43.8,37.9-91,39.8-141.3C614.8,117,614.7,116.1,614.7,115.1z"/>
</svg>
