<?xml version="1.0" encoding="utf-8"?>
<!-- Generator: Adobe Illustrator 21.1.0, SVG Export Plug-In . SVG Version: 6.00 Build 0)  -->
<svg version="1.1" id="Capa_1" xmlns="http://www.w3.org/2000/svg" xmlns:xlink="http://www.w3.org/1999/xlink" x="0px" y="0px"
	 viewBox="0 0 768 448" style="enable-background:new 0 0 768 448;" xml:space="preserve">
<style type="text/css">
	.st0{fill:#A3B267;}
	.st1{fill:none;}
	.st2{fill:#FFFFFF;}
	.st3{fill:#FFFFFF;stroke:#000000;stroke-width:4;stroke-miterlimit:10;}
	.st4{fill:#575756;}
	.st5{fill:#575756;stroke:#000000;stroke-width:4;stroke-miterlimit:10;}
</style>
<g>
	<g>
		<g>
			<g>
				<g>
					<path class="st4" d="M401.5,401.3c-0.7,0-1.4-0.1-2.1-0.2s-1.3-0.4-1.8-0.7c-0.5-0.4-1-0.9-1.3-1.6h-0.2l-0.1,2.3l-2.3,0
						l0.1-23.2l2.6,0l0,9.3l0.2,0c0.3-0.6,0.7-1,1.2-1.4c0.5-0.3,1.1-0.6,1.7-0.7s1.4-0.2,2.3-0.2c1.1,0,2.1,0.1,2.8,0.4
						c0.7,0.3,1.3,0.7,1.8,1.3c0.4,0.6,0.7,1.4,0.9,2.5c0.2,1.1,0.3,2.4,0.2,4c0,1.6-0.1,3-0.3,4c-0.2,1.1-0.5,1.9-0.9,2.5
						c-0.4,0.6-1,1-1.8,1.3C403.6,401.2,402.7,401.3,401.5,401.3z M400.5,399.1c1,0,1.7-0.1,2.3-0.2c0.6-0.1,1-0.4,1.3-0.8
						c0.3-0.4,0.5-1,0.6-1.8s0.2-1.9,0.2-3.2c0-1.3,0-2.4-0.1-3.2c-0.1-0.8-0.3-1.4-0.6-1.8c-0.3-0.4-0.7-0.7-1.3-0.8
						c-0.6-0.1-1.3-0.2-2.3-0.2c-1,0-1.8,0.1-2.4,0.4s-1,0.7-1.3,1.2c-0.3,0.5-0.4,1.2-0.5,1.9c-0.1,0.7-0.1,1.5-0.1,2.5
						c0,0.9,0,1.7,0.1,2.4s0.2,1.3,0.4,1.9c0.3,0.6,0.7,1,1.3,1.3C398.7,398.9,399.5,399.1,400.5,399.1z"/>
					<path class="st4" d="M421.3,407.6c-0.6,0-1.2,0-1.9-0.1c-0.7,0-1.3-0.1-1.9-0.1c-0.6,0-1.1-0.1-1.6-0.1l0-2
						c0.7,0,1.3,0.1,1.9,0.1c0.6,0,1.1,0.1,1.6,0.1c0.5,0,0.9,0,1.3,0c1.2,0,2.2-0.1,2.9-0.3c0.7-0.2,1.2-0.5,1.6-0.9
						c0.3-0.4,0.6-1,0.6-1.7c0.1-0.7,0.1-1.6,0.2-2.6l0-0.9l-0.2,0c-0.2,0.4-0.5,0.8-0.8,1.2c-0.4,0.4-0.9,0.6-1.6,0.8
						c-0.7,0.2-1.6,0.3-2.7,0.3c-1.2,0-2.1-0.1-2.8-0.4s-1.3-0.6-1.6-1.1s-0.6-1.2-0.8-1.9c-0.1-0.8-0.2-1.7-0.2-2.8l0-9.9l2.6,0
						l0,9c0,1.1,0,1.9,0.1,2.6s0.3,1.1,0.5,1.5s0.7,0.5,1.2,0.6c0.5,0.1,1.2,0.2,2,0.2c1,0,1.9-0.1,2.4-0.4c0.6-0.3,1-0.6,1.3-1.1
						c0.3-0.5,0.4-1.1,0.5-1.8s0.1-1.5,0.1-2.4l0-8.2l2.5,0l-0.1,14c0,1.5-0.1,2.8-0.3,3.9c-0.2,1.1-0.5,1.9-1,2.6s-1.2,1.1-2.2,1.4
						S422.9,407.6,421.3,407.6z"/>
				</g>
			</g>
			<g>
				<g>
					<g>
						<path class="st4" d="M502.5,405.5l0.1-24.8l12.5,0c1.6,0,2.9,0.2,3.9,0.7s1.8,1.2,2.3,2.1c0.5,0.9,0.8,2.1,0.8,3.5
							c0,1.2-0.2,2.1-0.5,2.9s-0.8,1.4-1.4,1.9c-0.6,0.5-1.4,0.8-2.4,1v0.1c1.1,0.2,1.9,0.6,2.6,1c0.7,0.5,1.1,1.1,1.5,1.9
							c0.3,0.8,0.5,1.8,0.5,3.1c0,1-0.1,2-0.4,2.8s-0.7,1.5-1.2,2.1c-0.6,0.6-1.3,1-2.2,1.3c-0.9,0.3-2.1,0.4-3.4,0.4L502.5,405.5z
							 M508.7,400.9l4.1,0c0.9,0,1.5-0.1,2-0.2c0.5-0.2,0.8-0.4,0.9-0.8c0.2-0.4,0.3-1,0.3-1.7c0-0.8-0.1-1.4-0.2-1.8
							c-0.2-0.4-0.5-0.7-1-0.8c-0.5-0.2-1.1-0.2-2-0.2l-4.1,0L508.7,400.9z M508.8,390.9l4,0c0.8,0,1.5-0.1,1.9-0.2
							c0.5-0.2,0.8-0.4,1-0.8c0.2-0.4,0.3-0.9,0.3-1.6c0-0.7-0.1-1.3-0.2-1.7c-0.2-0.4-0.5-0.6-0.9-0.8c-0.4-0.1-1.1-0.2-2-0.2l-4,0
							L508.8,390.9z"/>
						<path class="st4" d="M532,405.6l0.1-24.8l12.3,0c1.6,0,2.9,0.2,3.9,0.5c1,0.4,1.7,0.9,2.3,1.6s0.9,1.5,1,2.5
							c0.2,1,0.3,2.1,0.3,3.4c0,0.9-0.1,1.9-0.2,2.8c-0.1,0.9-0.5,1.8-0.9,2.6c-0.5,0.8-1.2,1.4-2.1,1.8l3.7,9.6l-6.5,0l-3.5-9.9
							l1.6,0.9c-0.2,0.1-0.4,0.2-0.7,0.2c-0.2,0-0.5,0-0.8,0l-4,0l0,8.8L532,405.6z M538.3,392.2l3.6,0c0.8,0,1.5,0,2-0.1
							c0.5-0.1,0.9-0.2,1.1-0.5c0.2-0.2,0.4-0.6,0.5-1c0.1-0.4,0.1-1,0.1-1.7c0-0.7,0-1.3-0.1-1.7c-0.1-0.4-0.2-0.8-0.4-1
							c-0.2-0.2-0.6-0.4-1.1-0.5c-0.5-0.1-1.2-0.1-2-0.2l-3.6,0L538.3,392.2z"/>
						<path class="st4" d="M571.6,406.1c-2.1,0-3.8-0.1-5.1-0.4c-1.3-0.3-2.4-0.7-3.1-1.2c-0.7-0.6-1.3-1.3-1.6-2.3
							c-0.3-1-0.6-2.2-0.6-3.6c-0.1-1.4-0.1-3.2-0.1-5.1c0-2,0.1-3.7,0.1-5.1c0.1-1.4,0.3-2.6,0.7-3.6s0.9-1.7,1.6-2.3
							s1.8-1,3.1-1.2c1.3-0.2,3-0.4,5.1-0.4c2.1,0,3.8,0.1,5.1,0.4c1.3,0.3,2.4,0.7,3.1,1.2c0.8,0.6,1.3,1.3,1.6,2.3
							s0.5,2.2,0.6,3.6s0.1,3.2,0.1,5.1c0,2-0.1,3.7-0.2,5.1s-0.3,2.6-0.7,3.6c-0.3,1-0.9,1.7-1.7,2.3c-0.8,0.6-1.8,1-3.2,1.2
							C575.4,405.9,573.7,406.1,571.6,406.1z M571.7,401.2c0.9,0,1.6,0,2.1-0.1c0.5-0.1,1-0.2,1.3-0.5c0.3-0.3,0.5-0.7,0.7-1.2
							s0.2-1.3,0.3-2.3s0.1-2.2,0.1-3.8s0-2.8,0-3.8c0-1-0.1-1.8-0.3-2.3s-0.4-1-0.7-1.2c-0.3-0.3-0.7-0.4-1.3-0.5
							c-0.5-0.1-1.2-0.1-2.1-0.1c-0.8,0-1.5,0-2.1,0.1c-0.6,0.1-1,0.2-1.3,0.5c-0.3,0.3-0.5,0.7-0.7,1.2c-0.1,0.6-0.2,1.3-0.3,2.3
							c0,1-0.1,2.2-0.1,3.8s0,2.8,0,3.8c0,1,0.1,1.8,0.3,2.3c0.1,0.6,0.4,1,0.7,1.2c0.3,0.3,0.7,0.4,1.3,0.5
							C570.1,401.2,570.8,401.2,571.7,401.2z"/>
						<path class="st4" d="M592.3,405.8l0.1-24.8l6.3,0l0,9.8l1.8,0l6.8-9.8l6.8,0l-8.5,11.7l8.5,13l-7,0l-6.6-10.2l-1.8,0l0,10.2
							L592.3,405.8z"/>
						<path class="st4" d="M622.3,405.9l0.1-24.8l17.3,0.1l0,4.8l-11.1,0l0,5.1l9.4,0l0,4.8l-9.4,0l0,5.3l11.1,0l0,4.8L622.3,405.9z
							"/>
						<path class="st4" d="M647.2,406l7.9-24.7l8.5,0l7.8,24.8l-6.3,0l-1.5-4.9l-8.8,0l-1.5,4.9L647.2,406z M656.2,396.5l6.1,0
							l-2.9-9.8l-0.3,0L656.2,396.5z"/>
						<path class="st4" d="M679.7,406.1l0.1-24.8l12.3,0c1.6,0,2.9,0.2,3.9,0.5c1,0.4,1.7,0.9,2.3,1.6s0.9,1.5,1,2.5
							c0.2,1,0.3,2.1,0.3,3.4c0,0.9-0.1,1.9-0.2,2.8c-0.1,0.9-0.5,1.8-0.9,2.6c-0.5,0.8-1.2,1.4-2.1,1.8l3.7,9.6l-6.5,0l-3.5-9.9
							l1.6,0.9c-0.2,0.1-0.4,0.2-0.7,0.2s-0.5,0-0.8,0l-4,0l0,8.8L679.7,406.1z M686,392.7l3.6,0c0.8,0,1.5,0,2-0.1
							c0.5-0.1,0.9-0.2,1.1-0.5c0.2-0.2,0.4-0.6,0.5-1c0.1-0.4,0.1-1,0.1-1.7c0-0.7,0-1.3-0.1-1.7c-0.1-0.4-0.2-0.8-0.4-1
							c-0.2-0.2-0.6-0.4-1.1-0.5c-0.5-0.1-1.2-0.1-2-0.2l-3.6,0L686,392.7z"/>
					</g>
				</g>
				<g>
					<g>
						<polygon class="st4" points="444.4,377.6 444.4,383.7 455.4,391.5 444.3,398.9 444.3,405.3 459.1,395.1 459.1,394 459.1,389 
							459.1,387.6 						"/>
						<polygon class="st4" points="486.2,405.5 486.3,399.4 475.2,391.6 486.3,384.2 486.4,377.7 471.6,388 471.6,389.1 
							471.6,394.1 471.6,395.5 						"/>
						<polygon class="st4" points="478.9,371.4 472.8,371.4 465,382.4 457.5,371.3 451.1,371.3 461.3,386.1 462.4,386.1 
							467.4,386.1 468.8,386.1 						"/>
						<polygon class="st4" points="450.9,413.6 457,413.6 464.8,402.6 472.3,413.7 478.7,413.7 468.4,398.9 467.4,398.9 
							462.3,398.9 460.9,398.9 						"/>
					</g>
				</g>
			</g>
		</g>
		<path class="st0" d="M606.3,307.3c-0.4,1.9-1.2,3.7-2.3,5.2c-3.6,4.8-10,11.8-13.6,14.1c-8.5,5.3-23.1,9.4-30.7,1.1
			c-0.4-0.7-0.7-1.4-1-2.2c6.8,2.8,18.9-3.1,19.9-12c0.6-5.4-1.6-12-10.5-12.2c-6.3-0.1-13.3,5.2-17,12.2c-0.3,0.5-0.5,0.9-0.8,1.4
			c-0.9,1.2-1.3,2.1-2.1,3c-2.5,3.5-5,8-9.7,8.1c-1.1-0.6-0.7-1.4-0.7-3c2.6-16.4-8.2-15.5-16.8-9.1c0.3-11.1-8.8-15.5-16.7-6.4
			c-2,2-4.7,5.7-7.1,9.2c0.7-2.2,1.4-4.3,2.2-6.5c2.1-6-7.3-9.1-9.2-3.1c-0.7,2-0.7,2.8-1.3,4.7c-0.1,0.2-0.1,0.4-0.2,0.6
			c-0.2,0.4-0.3,0.7-0.6,1.1c-8.4,12.4-30.5,22.4-42.4,12.2c9.7-3.7,19.2-12.1,14.6-22.8c-5.8-9.9-20.4-6.2-27.7-0.8
			c-4.5,3.4-8.3,7.4-11.5,11.9c-0.4,0.3-0.9,0.8-1.3,1.3c-9.7,12.3-31.8,18.1-26-5c1.5-6.2-7.4-8.5-9.3-2.8
			c-0.1,0.2-0.2,0.4-0.3,0.6c-0.8,2.6-1.9,5.1-3.1,7.5c-2.4,4.8-5.4,9.4-9.1,13.1c-3,2.8-6.5,5.7-10.4,4.5
			c-4.3-2.3,1.6-15.2,2.9-19.1c2.3-6.4-7.4-9.5-9.3-3c-0.2,0.7-0.3,1.3-0.5,2c-9.7,3.2-19.8,1.3-28.3-3.6c-1.2-1.1-2.6-2-4.2-2.8
			c0,0,0,0-0.1,0l0,0c-0.1-0.1-0.3-0.1-0.4-0.2c-2.6-1.2-5.9-0.3-7,2.6c-0.3,0.9-0.4,1.9-0.2,2.8c-0.4,0.3-0.9,0.6-1.3,0.9
			c-8.2-0.1-24.3,7.1-28.3,8.2c-1.4,0.5-2.8,1-4.1,1.6c0.8-5.3,1.4-11,1.9-17c0.8-6-8.6-7.5-9.6-1.5c0,0,0,0,0,0.1
			c-0.1,0.6-0.3,1.3-0.5,1.9c-9.4-19.9-43.6,11.2-33,26.1c5.8,9.8,20.8-0.3,30.5-11.4c-0.3,2.4-0.7,4.7-1.1,6.9
			c-108.2,48.9-11.5,111.4,10.3,4c6.6-2.7,13.8-5.3,21.9-7.9c0.9-0.3,1.7-0.5,2.6-0.7c-1.1,1.8-1.9,3.8-2.5,5.8
			c-2.6,10.1,7.4,14.5,15.9,13.3c13.3-0.8,18.4-11.4,16.2-21.2c6.1,2,12.8,1.9,19.2,0.7c-0.6,3.3-0.9,6.7-0.4,10.1c0.6,5,5,9,10.1,9
			c9.1,0.1,15.3-8,19.8-14.8c0.7-1.2,1.4-2.3,2.1-3.5c1.5,5.5,4.9,10.2,11,11.7c5.7,1.5,11.3,0.5,16.4-2c-2.2,5.6-3.9,11.3-5.5,17
			c-1.3,4.7,6,6.8,7.5,2.2c2.8-7.9,6.1-15.7,10-23c5.5-9.9,14.1-22,26.4-21.9c1.1,0,1.4,1,1.4,2.1c-1.5,6.2-9.1,8.2-15.1,9.4
			c-0.7,0.1-1.4,0.4-2,0.8c-5.4,4.3,1.3,10.1,4.7,13.4c11.4,10.8,29.6,8,41.3-0.7c0.9-0.6,1.7-1.3,2.6-1.9
			c-1.9,5.2-3.7,10.9-0.2,13.4c2.2,1.5,6.4,0.3,7.4-2.8c5.2-10.6,13.8-24.4,22.9-30.3c1.4,5.9-2.1,14.8-4.5,20.6
			c-2.6,5.3,5.5,9.6,8.5,4.6c3.3-5.8,6.7-13.1,12.8-16.2c-1.7,17.5,10.6,18.6,19.5,9.9c1.4,5.7,5.9,11.3,19,11.7
			c9.2,0.3,19.4-3.4,26.2-7.8c1.4-1,4.2-3,6.9-5.4c-1.2,6.1-2.1,12.1-2.6,18.2c-0.2,3.2-0.3,6.5,0.4,10.1c0.8,4.6,7.9,3.2,7-1.3
			c-0.6-18.2,5.2-36.5,10.6-54.3c10.1,0.1,20.1,0.8,30.1,2.2c2.4,0.4,4.7-1.3,5-3.7c1-7.6-15.8-5.1-20.8-6.2c-4-0.1-8-0.2-11.9-0.2
			c0.7-2.5,1.4-5.1,2.1-7.6c1.7-5.4-6.9-7.8-8.3-2.3c-0.9,3.3-1.8,6.7-2.7,10c-9.9,0.3-19.9,1-29.8,1.9c-4.4,0.4-3.7,7.3,0.6,6.8
			c5.5-0.4,11-0.7,16.6-0.9c3-0.1,5.9-0.2,8.9-0.2c0.8,0,1.5,0.8,1.3,1.6L606.3,307.3z M560.6,315c2-2.9,5.1-4.8,8.6-4.1
			c3.3,2.4-0.8,8.2-4.1,8.8C561.2,320.9,559.7,317.9,560.6,315z M247.4,328.4c-4.4-3.7,13.3-25.9,17.4-15.6c0.5,1.3,0.9,2.1,1.3,2.7
			c0.1,0.2,0.1,0.5-0.1,0.6C259.4,323.2,250.5,329.6,247.4,328.4z M234.2,384.1c-17.3,0-4.7-32.3,34.4-48.7
			C263,361.8,249.7,382.7,234.2,384.1z M323.4,331.7c-2.4,2.2-7.2,2.6-10.6,2.2c-3.3-0.5-3.7-1.4-2.3-4.4c2.5-4.8,7.2-8.5,11.9-10.9
			c0.1-0.1,0.3-0.1,0.4-0.2C326.2,322.1,327.4,328.2,323.4,331.7z"/>
	</g>
</g>
<g>
</g>
<g>
	<g>
		
			<rect x="318.4" y="195.9" transform="matrix(4.352273e-03 -1 1 4.352273e-03 160.3087 584.3011)" class="st4" width="110.4" height="31.5"/>
		<polygon class="st4" points="536.9,157.1 419.2,156.6 419.1,185 462.4,185.1 462,267.2 492.8,267.4 493.2,185.3 536.8,185.5 		"/>
		<polygon class="st4" points="629.4,268 666.3,268.1 596.9,163.8 571.3,200.6 571.3,200.6 526.4,267.5 563.2,267.7 596.3,219.5 		
			"/>
	</g>
</g>
<path class="st0" d="M388.8,34.7c-0.4,0.1-0.5,0.1-0.7,0.2c-13.1,7.4-27,12.5-41.5,16.4c-9.6,2.6-19.2,5.1-28.4,8.9
	c-10.9,4.5-21.1,10-29.8,18.1c-6.2,5.7-11.1,12.1-14.1,19.3c-0.8-2.9-1.9-5.7-3.3-8.4c-3.5-6.8-8.4-12.5-14.4-17.4
	c-2.5-2-5.1-3.8-7.8-5.4c-0.2-0.1-0.4-0.2-0.5-0.4c10,3.7,18.1,9.7,23.7,18.9c1.3-3,2.1-6.1,2.1-9.3c0.1-6.7-2.8-12-7.5-16.5
	c-3.7-3.5-8.1-6-12.8-7.9c-4-1.7-8.1-2.8-12.2-4c-6.2-1.8-12.2-4-17.8-7.3c-0.1,0-0.1,0-0.3-0.1c0,0.2,0,0.5,0,0.7
	c0.3,12.2,3.3,23.7,9.3,34.4c2.6,4.7,5.8,8.9,10.3,12c4.8,3.3,10.1,4.7,15.9,4.4c3.6-0.2,7-1,10.3-2.3c0.1,0.1,0.2,0.2,0.2,0.3
	c1.8,3.4,3.2,6.9,3.9,10.6c-1.8,5-2.8,10.3-2.8,16.1c0,7.5,1.7,14.6,4.6,21.6c13.3-21.2,32.2-34.9,55.4-43.2
	c-0.4,0.3-0.8,0.5-1.3,0.8c-6.3,3.7-12.5,7.7-18.2,12.3c-13.9,11.1-25.5,24.1-33.8,39.8c-3.3,6.2-6,12.6-7.8,19.3l-0.7,1.1
	L178.4,38.1L63.3,37.6l155.2,233.1l37.8-54.3l0.1,0.1l44.3-64.1c1.5,0.2,3.1,0.4,4.7,0.5c13.4,0.8,25.8-2.2,37-9.8
	c10.4-7,18-16.6,24.1-27.4c14.1-24.6,21.3-51.1,22.4-79.4C388.9,35.8,388.8,35.3,388.8,34.7z"/>
</svg>
