<?xml version="1.0" encoding="utf-8"?>
<!-- Generator: Adobe Illustrator 21.1.0, SVG Export Plug-In . SVG Version: 6.00 Build 0)  -->
<svg version="1.1" id="Capa_1" xmlns="http://www.w3.org/2000/svg" xmlns:xlink="http://www.w3.org/1999/xlink" x="0px" y="0px"
	 viewBox="0 0 768 448" style="enable-background:new 0 0 768 448;" xml:space="preserve">
<style type="text/css">
	.st0{fill:#FFFFFF;}
	.st1{clip-path:url(#SVGID_2_);}
	.st2{clip-path:url(#SVGID_2_);fill:#FFFFFF;}
</style>
<g>
	<g>
		<g>
			<g>
				<g>
					<polygon class="st0" points="289.9,153.4 356.7,55.4 222.5,55.4 					"/>
				</g>
			</g>
		</g>
		<path class="st0" d="M235.9,236.2"/>
		<path class="st0" d="M355.7,55.4"/>
	</g>
	<g>
		<defs>
			<polygon id="SVGID_1_" points="200.4,288.5 261.1,200.3 159.3,55.4 43.8,55.4 			"/>
		</defs>
		<clipPath id="SVGID_2_">
			<use xlink:href="#SVGID_1_"  style="overflow:visible;"/>
		</clipPath>
		<g id="h8QqK4_112_" class="st1">
			
				<image style="overflow:visible;" width="124" height="2591" id="h8QqK4_113_" xlink:href="EADDBE1D660DC6C9.jpg"  transform="matrix(0.1517 0 0 0.1517 265.9543 93.562)">
			</image>
		</g>
		<rect x="35.4" y="51.5" class="st2" width="24.4" height="76"/>
		<rect x="65.1" y="38.6" class="st2" width="19.6" height="272.6"/>
		<rect x="89.9" y="38.6" class="st2" width="19.6" height="272.6"/>
		<rect x="114.9" y="38.6" class="st2" width="19.6" height="272.6"/>
		<rect x="140" y="38.6" class="st2" width="19.6" height="272.6"/>
		<rect x="165.3" y="38.6" class="st2" width="19.6" height="272.6"/>
		<rect x="190.7" y="38.6" class="st2" width="19.6" height="272.6"/>
		<rect x="216.2" y="38.6" class="st2" width="19.6" height="272.6"/>
		<rect x="241.5" y="38.6" class="st2" width="19.6" height="272.6"/>
	</g>
	<g>
		<g>
			<rect x="342.8" y="155.1" class="st0" width="46.9" height="126.6"/>
			<polygon class="st0" points="551.3,155.1 417.3,155.1 417.3,198.8 461.1,198.8 461.1,281.7 507.3,281.7 507.3,198.8 551.3,198.8 
							"/>
			<g>
				<path class="st0" d="M650.3,263"/>
			</g>
			<g>
				<path class="st0" d="M647.1,276.9"/>
			</g>
			<polygon class="st0" points="621.2,238.8 650.8,281.7 654.9,281.7 706.3,281.7 621.6,155.7 596,192.9 595.8,192.7 536.7,281.7 
				591.9,281.7 			"/>
		</g>
	</g>
	<path class="st0" d="M219.7,319l44.3,67.2h450.8V319H219.7z M408.8,342.6c-0.4-1-1-1.7-1.8-2.1c-0.8-0.4-1.8-0.7-3.2-0.8
		c-1.3-0.1-3-0.1-5-0.1h-5.6v27.3h5.6c2.1,0,3.7,0,5.1-0.1c1.3-0.1,2.4-0.3,3.2-0.8c0.8-0.4,1.3-1.1,1.7-2.1c0.4-1,0.6-2.3,0.7-4
		c0.1-1.7,0.1-4,0.1-6.6c0-2.7,0-4.9-0.1-6.6C409.4,345,409.1,343.6,408.8,342.6z M591.6,342.4c-0.3-1-0.8-1.7-1.5-2.2
		c-0.7-0.4-1.6-0.7-2.8-0.8c-1.2-0.1-2.7-0.2-4.5-0.2c-1.8,0-3.3,0.1-4.5,0.2c-1.2,0.1-2.1,0.4-2.8,0.8c-0.7,0.4-1.2,1.2-1.5,2.2
		c-0.3,1-0.5,2.4-0.6,4.1c-0.1,1.7-0.1,4-0.1,6.8c0,2.8,0,5.1,0.1,6.8c0.1,1.7,0.3,3.1,0.6,4.1c0.3,1,0.8,1.7,1.5,2.2
		c0.7,0.4,1.6,0.7,2.8,0.8c1.2,0.1,2.7,0.2,4.5,0.2c1.8,0,3.3-0.1,4.5-0.2c1.2-0.1,2.1-0.4,2.8-0.8c0.7-0.4,1.2-1.2,1.5-2.2
		c0.3-1,0.5-2.4,0.6-4.1c0.1-1.7,0.1-4,0.1-6.8c0-2.8,0-5.1-0.1-6.8C592.1,344.7,591.9,343.4,591.6,342.4z M415.6,361.2
		c-0.1,2.2-0.5,4-1,5.4c-0.5,1.4-1.4,2.5-2.6,3.4c-1.2,0.8-2.8,1.4-4.8,1.7c-2,0.3-4.6,0.5-7.8,0.5H387v-37.8h12.4
		c3.2,0,5.8,0.2,7.8,0.5c2,0.3,3.6,0.9,4.8,1.7c1.2,0.8,2,1.9,2.6,3.4c0.5,1.4,0.9,3.2,1,5.4c0.1,2.2,0.2,4.9,0.2,8
		C415.8,356.4,415.8,359,415.6,361.2z M474.7,339.6h-19v10.8h16.4v5.3h-16.4v11.2h19v5.3h-25.2v-37.8h25.2V339.6z M531.2,372.2
		l-12.2-16.6h-5.3v16.6h-6.2v-37.8h6.2v16h5.3l12.4-16h6.8l-14.1,18.2l14.3,19.6H531.2z M598.3,361.3c-0.1,2.2-0.5,4.1-1,5.5
		c-0.5,1.5-1.4,2.6-2.5,3.5c-1.1,0.8-2.7,1.4-4.6,1.8c-2,0.3-4.4,0.5-7.5,0.5c-3,0-5.5-0.2-7.4-0.5c-1.9-0.3-3.5-0.9-4.6-1.8
		c-1.1-0.8-2-2-2.5-3.5c-0.5-1.5-0.8-3.3-1-5.5c-0.1-2.2-0.2-4.9-0.2-8.1c0-3.2,0.1-5.8,0.2-8.1c0.1-2.2,0.5-4.1,1-5.5
		c0.5-1.5,1.3-2.6,2.5-3.5c1.1-0.8,2.7-1.4,4.6-1.8c1.9-0.3,4.4-0.5,7.4-0.5c3,0,5.5,0.2,7.5,0.5c2,0.3,3.5,0.9,4.6,1.8
		c1.1,0.8,2,2,2.5,3.5c0.5,1.5,0.9,3.3,1,5.5c0.1,2.2,0.2,4.9,0.2,8.1C598.5,356.4,598.5,359.1,598.3,361.3z"/>
</g>
</svg>
