<?xml version="1.0" encoding="utf-8"?>
<!-- Generator: Adobe Illustrator 21.1.0, SVG Export Plug-In . SVG Version: 6.00 Build 0)  -->
<svg version="1.1" id="Capa_1" xmlns="http://www.w3.org/2000/svg" xmlns:xlink="http://www.w3.org/1999/xlink" x="0px" y="0px"
	 viewBox="0 0 768 448" style="enable-background:new 0 0 768 448;" xml:space="preserve">
<style type="text/css">
	.st0{fill:#C89267;}
	.st1{clip-path:url(#SVGID_2_);}
	.st2{clip-path:url(#SVGID_2_);fill:#C89267;}
</style>
<g>
	<g>
		<g>
			<g>
				<g>
					<polygon class="st0" points="291,157.2 357.9,59.2 223.6,59.2 					"/>
				</g>
			</g>
		</g>
		<path class="st0" d="M237,240"/>
		<path class="st0" d="M356.9,59.2"/>
	</g>
	<g>
		<defs>
			<polygon id="SVGID_1_" points="201.5,292.3 262.3,204.2 160.4,59.2 44.9,59.2 			"/>
		</defs>
		<clipPath id="SVGID_2_">
			<use xlink:href="#SVGID_1_"  style="overflow:visible;"/>
		</clipPath>
		<g id="h8QqK4_110_" class="st1">
			
				<image style="overflow:visible;" width="124" height="2591" id="h8QqK4_111_" xlink:href="A72A59A3F2912D7A.jpg"  transform="matrix(0.1517 0 0 0.1517 267.0881 97.3562)">
			</image>
		</g>
		<rect x="36.5" y="55.3" class="st2" width="24.4" height="76.1"/>
		<rect x="66.2" y="42.4" class="st2" width="19.6" height="272.6"/>
		<rect x="91" y="42.4" class="st2" width="19.6" height="272.6"/>
		<rect x="116" y="42.4" class="st2" width="19.6" height="272.6"/>
		<rect x="141.1" y="42.4" class="st2" width="19.6" height="272.6"/>
		<rect x="166.4" y="42.4" class="st2" width="19.6" height="272.6"/>
		<rect x="191.8" y="42.4" class="st2" width="19.6" height="272.6"/>
		<rect x="217.3" y="42.4" class="st2" width="19.6" height="272.6"/>
		<rect x="242.7" y="42.4" class="st2" width="19.6" height="272.6"/>
	</g>
	<g>
		<g>
			<rect x="344" y="158.9" class="st0" width="46.9" height="126.6"/>
			<polygon class="st0" points="552.5,158.9 418.5,158.9 418.5,202.7 462.2,202.7 462.2,285.6 508.5,285.6 508.5,202.7 552.5,202.7 
							"/>
			<g>
				<path class="st0" d="M651.5,266.9"/>
			</g>
			<g>
				<path class="st0" d="M648.2,280.7"/>
			</g>
			<polygon class="st0" points="622.4,242.6 652,285.6 656.1,285.6 707.5,285.6 622.8,159.5 597.2,196.7 597,196.5 537.9,285.6 
				593.1,285.6 			"/>
		</g>
	</g>
	<path class="st0" d="M220.8,322.9l44.3,67.2H716v-67.2H220.8z M409.9,346.5c-0.4-1-1-1.7-1.8-2.1c-0.8-0.4-1.8-0.7-3.2-0.8
		c-1.3-0.1-3-0.1-5-0.1h-5.6v27.3h5.6c2.1,0,3.7,0,5.1-0.1c1.3-0.1,2.4-0.3,3.2-0.8c0.8-0.4,1.3-1.1,1.7-2.1c0.4-1,0.6-2.3,0.7-4
		c0.1-1.7,0.1-4,0.1-6.6c0-2.7,0-4.9-0.1-6.6C410.5,348.8,410.3,347.4,409.9,346.5z M592.7,346.2c-0.3-1-0.8-1.7-1.5-2.2
		c-0.7-0.4-1.6-0.7-2.8-0.8c-1.2-0.1-2.7-0.2-4.5-0.2c-1.8,0-3.3,0.1-4.5,0.2c-1.2,0.1-2.1,0.4-2.8,0.8c-0.7,0.4-1.2,1.2-1.5,2.2
		c-0.3,1-0.5,2.4-0.6,4.1c-0.1,1.7-0.1,4-0.1,6.8c0,2.8,0,5.1,0.1,6.8c0.1,1.7,0.3,3.1,0.6,4.1c0.3,1,0.8,1.7,1.5,2.2
		c0.7,0.4,1.6,0.7,2.8,0.8c1.2,0.1,2.7,0.2,4.5,0.2c1.8,0,3.3-0.1,4.5-0.2c1.2-0.1,2.1-0.4,2.8-0.8c0.7-0.4,1.2-1.2,1.5-2.2
		c0.3-1,0.5-2.4,0.6-4.1c0.1-1.7,0.1-4,0.1-6.8c0-2.8,0-5.1-0.1-6.8C593.3,348.6,593.1,347.2,592.7,346.2z M416.8,365.1
		c-0.1,2.2-0.5,4-1,5.4c-0.5,1.4-1.4,2.5-2.6,3.4c-1.2,0.8-2.8,1.4-4.8,1.7c-2,0.3-4.6,0.5-7.8,0.5h-12.4v-37.8h12.4
		c3.2,0,5.8,0.2,7.8,0.5c2,0.3,3.6,0.9,4.8,1.7c1.2,0.8,2,1.9,2.6,3.4c0.5,1.4,0.9,3.2,1,5.4c0.1,2.2,0.2,4.9,0.2,8
		C417,360.2,416.9,362.9,416.8,365.1z M475.8,343.5h-19v10.8h16.4v5.3h-16.4v11.2h19v5.3h-25.2v-37.8h25.2V343.5z M532.4,376
		l-12.2-16.6H515V376h-6.2v-37.8h6.2v16h5.3l12.4-16h6.8l-14.1,18.2l14.3,19.6H532.4z M599.5,365.2c-0.1,2.2-0.5,4.1-1,5.5
		c-0.5,1.5-1.4,2.6-2.5,3.5c-1.1,0.8-2.7,1.4-4.6,1.8c-2,0.3-4.4,0.5-7.5,0.5c-3,0-5.5-0.2-7.4-0.5c-1.9-0.3-3.5-0.9-4.6-1.8
		c-1.1-0.8-2-2-2.5-3.5c-0.5-1.5-0.8-3.3-1-5.5c-0.1-2.2-0.2-4.9-0.2-8.1c0-3.2,0.1-5.8,0.2-8.1c0.1-2.2,0.5-4.1,1-5.5
		c0.5-1.5,1.3-2.6,2.5-3.5c1.1-0.8,2.7-1.4,4.6-1.8c1.9-0.3,4.4-0.5,7.4-0.5c3,0,5.5,0.2,7.5,0.5c2,0.3,3.5,0.9,4.6,1.8
		c1.1,0.8,2,2,2.5,3.5c0.5,1.5,0.9,3.3,1,5.5c0.1,2.2,0.2,4.9,0.2,8.1C599.7,360.3,599.7,362.9,599.5,365.2z"/>
</g>
</svg>
